<?xml version="1.0" standalone="no"?>
<!DOCTYPE svg PUBLIC "-//W3C//DTD SVG 20010904//EN"
 "http://www.w3.org/TR/2001/REC-SVG-20010904/DTD/svg10.dtd">
<svg version="1.0" xmlns="http://www.w3.org/2000/svg"
 width="700.000000pt" height="700.000000pt" viewBox="0 0 700.000000 700.000000"
 preserveAspectRatio="xMidYMid meet">
<metadata>
Created by potrace 1.11, written by Peter Selinger 2001-2013
</metadata>
<g transform="translate(0.000000,700.000000) scale(0.100000,-0.100000)"
fill="#000000" stroke="none">
<path d="M3899 6726 c-3 -31 -4 -2776 -1 -2776 3 0 664 509 758 584 29 23 134
105 235 183 101 78 331 256 511 395 180 139 410 318 512 397 103 78 186 148
186 153 0 27 -277 317 -400 420 -391 325 -859 539 -1350 617 -202 32 -449 47
-451 27z"/>
<path d="M3407 5864 c-1 -1 -45 -4 -97 -8 -52 -3 -111 -8 -130 -11 -19 -2 -57
-7 -85 -11 -27 -3 -93 -15 -145 -26 -52 -10 -105 -21 -116 -24 -233 -46 -628
-219 -868 -378 -272 -181 -522 -415 -702 -656 -134 -180 -235 -351 -320 -545
-20 -44 -40 -89 -45 -100 -5 -11 -27 -74 -50 -140 -53 -157 -95 -330 -123
-515 -28 -177 -28 -601 0 -775 25 -157 28 -170 79 -375 9 -35 77 -237 91 -269
9 -20 20 -45 24 -56 62 -157 216 -426 340 -590 124 -165 336 -388 450 -474 19
-14 46 -36 60 -49 26 -23 273 -193 300 -205 8 -4 29 -15 45 -25 115 -70 311
-160 450 -207 44 -15 87 -30 95 -33 82 -29 332 -86 435 -98 27 -4 53 -8 56
-10 12 -7 232 -18 349 -18 188 0 307 10 485 40 31 5 155 31 190 40 11 3 30 7
42 10 40 8 256 81 338 114 130 51 303 141 450 233 283 176 574 451 774 732
292 410 464 874 512 1385 13 138 7 479 -11 595 -6 39 -12 84 -15 100 -29 225
-139 565 -261 805 -102 202 -276 465 -300 456 -8 -3 -411 -314 -896 -692 -486
-378 -921 -717 -968 -753 -47 -36 -141 -110 -210 -163 l-125 -98 -5 1397 -5
1398 -43 0 c-24 1 -44 0 -45 -1z"/>
</g>
</svg>
